<?xml version="1.0" encoding="UTF-8" standalone="no"?>
<!DOCTYPE svg PUBLIC "-//W3C//DTD SVG 1.1//EN"
 "http://www.w3.org/Graphics/SVG/1.1/DTD/svg11.dtd">
<!-- Generated by graphviz version 2.40.1 (20161225.0304)
 -->
<!-- Title: %3 Pages: 1 -->
<svg width="136pt" height="116pt"
 viewBox="0.00 0.00 135.50 116.00" xmlns="http://www.w3.org/2000/svg" xmlns:xlink="http://www.w3.org/1999/xlink">
<g id="graph0" class="graph" transform="scale(1 1) rotate(0) translate(4 112)">
<title>%3</title>
<!-- auth -->
<g id="node1" class="node">
<title>auth</title>
<polygon fill="#b2ebf2" stroke="#2980b9" points="38.9241,-72 87.0759,-72 104.2246,-108 21.7754,-108 38.9241,-72"/>
<text text-anchor="middle" x="63" y="-86.3" font-family="Segoe UI,Roboto,Helvetica,Arial,sans-serif" font-size="14.00" fill="#000000">Auth</text>
</g>
<!-- login -->
<g id="node2" class="node">
<title>login</title>
<path fill="#ffffff" stroke="#2980b9" d="M42,-36C42,-36 12,-36 12,-36 6,-36 0,-30 0,-24 0,-24 0,-12 0,-12 0,-6 6,0 12,0 12,0 42,0 42,0 48,0 54,-6 54,-12 54,-12 54,-24 54,-24 54,-30 48,-36 42,-36"/>
<text text-anchor="middle" x="27" y="-14.3" font-family="Segoe UI,Roboto,Helvetica,Arial,sans-serif" font-size="14.00" fill="#000000">Login</text>
</g>
<!-- auth&#45;&gt;login -->
<g id="edge2" class="edge">
<title>auth&#45;&gt;login</title>
<path fill="none" stroke="#2980b9" stroke-dasharray="5,2" d="M53.9157,-71.8314C49.9385,-63.8771 45.1845,-54.369 40.7861,-45.5723"/>
<polygon fill="#2980b9" stroke="#2980b9" points="43.8093,-43.7923 36.2066,-36.4133 37.5483,-46.9228 43.8093,-43.7923"/>
</g>
<!-- token -->
<g id="node3" class="node">
<title>token</title>
<path fill="#ffffff" stroke="#2980b9" d="M115.5,-36C115.5,-36 84.5,-36 84.5,-36 78.5,-36 72.5,-30 72.5,-24 72.5,-24 72.5,-12 72.5,-12 72.5,-6 78.5,0 84.5,0 84.5,0 115.5,0 115.5,0 121.5,0 127.5,-6 127.5,-12 127.5,-12 127.5,-24 127.5,-24 127.5,-30 121.5,-36 115.5,-36"/>
<text text-anchor="middle" x="100" y="-14.3" font-family="Segoe UI,Roboto,Helvetica,Arial,sans-serif" font-size="14.00" fill="#000000">Token</text>
</g>
<!-- auth&#45;&gt;token -->
<g id="edge1" class="edge">
<title>auth&#45;&gt;token</title>
<path fill="none" stroke="#2980b9" stroke-dasharray="5,2" d="M72.3367,-71.8314C76.4243,-63.8771 81.3104,-54.369 85.8309,-45.5723"/>
<polygon fill="#2980b9" stroke="#2980b9" points="89.0799,-46.9074 90.5376,-36.4133 82.8539,-43.7078 89.0799,-46.9074"/>
</g>
</g>
</svg>
