<?xml version="1.0" encoding="UTF-8" standalone="no"?>
<!DOCTYPE svg PUBLIC "-//W3C//DTD SVG 1.1//EN"
 "http://www.w3.org/Graphics/SVG/1.1/DTD/svg11.dtd">
<!-- Generated by graphviz version 2.40.1 (20161225.0304)
 -->
<!-- Title: %3 Pages: 1 -->
<svg width="433pt" height="305pt"
 viewBox="0.00 0.00 432.55 305.00" xmlns="http://www.w3.org/2000/svg" xmlns:xlink="http://www.w3.org/1999/xlink">
<g id="graph0" class="graph" transform="scale(1 1) rotate(0) translate(4 301)">
<title>%3</title>
<!-- mlService -->
<g id="node1" class="node">
<title>mlService</title>
<polygon fill="#f5ffff" stroke="#dddddd" points="216.4738,-297 131.5262,-297 101.273,-261 246.727,-261 216.4738,-297"/>
<text text-anchor="middle" x="174" y="-275.3" font-family="Segoe UI,Roboto,Helvetica,Arial,sans-serif" font-size="14.00" fill="#dddddd">MlService</text>
</g>
<!-- classifier -->
<g id="node2" class="node">
<title>classifier</title>
<polygon fill="#f5ffff" stroke="#dddddd" points="150.7131,-210 69.2869,-210 40.2878,-174 179.7122,-174 150.7131,-210"/>
<text text-anchor="middle" x="110" y="-188.3" font-family="Segoe UI,Roboto,Helvetica,Arial,sans-serif" font-size="14.00" fill="#dddddd">Classifier</text>
</g>
<!-- mlService&#45;&gt;classifier -->
<g id="edge1" class="edge">
<title>mlService&#45;&gt;classifier</title>
<path fill="none" stroke="#dddddd" d="M160.7392,-260.9735C151.643,-248.6085 139.4279,-232.0036 129.2623,-218.1847"/>
<polygon fill="#dddddd" stroke="#dddddd" points="131.9889,-215.9846 123.2439,-210.0034 126.3502,-220.1326 131.9889,-215.9846"/>
<text text-anchor="middle" x="170.5" y="-231.8" font-family="Times,serif" font-size="14.00" fill="#dddddd">classifier</text>
</g>
<!-- auth -->
<g id="node5" class="node">
<title>auth</title>
<polygon fill="#b2ebf2" stroke="#2980b9" points="223.9241,-174 272.0759,-174 289.2246,-210 206.7754,-210 223.9241,-174"/>
<text text-anchor="middle" x="248" y="-188.3" font-family="Segoe UI,Roboto,Helvetica,Arial,sans-serif" font-size="14.00" fill="#000000">Auth</text>
</g>
<!-- mlService&#45;&gt;auth -->
<g id="edge2" class="edge">
<title>mlService&#45;&gt;auth</title>
<path fill="none" stroke="#dddddd" d="M189.3328,-260.9735C199.9494,-248.4919 214.2408,-231.6899 226.06,-217.7944"/>
<polygon fill="#dddddd" stroke="#dddddd" points="228.8738,-219.8883 232.6868,-210.0034 223.5417,-215.3529 228.8738,-219.8883"/>
<text text-anchor="middle" x="228" y="-231.8" font-family="Times,serif" font-size="14.00" fill="#dddddd">auth</text>
</g>
<!-- classifier_name -->
<g id="node7" class="node">
<title>classifier_name</title>
<path fill="#ffffff" stroke="#dddddd" d="M125,-123C125,-123 95,-123 95,-123 89,-123 83,-117 83,-111 83,-111 83,-99 83,-99 83,-93 89,-87 95,-87 95,-87 125,-87 125,-87 131,-87 137,-93 137,-99 137,-99 137,-111 137,-111 137,-117 131,-123 125,-123"/>
<text text-anchor="middle" x="110" y="-101.3" font-family="Segoe UI,Roboto,Helvetica,Arial,sans-serif" font-size="14.00" fill="#dddddd">String</text>
</g>
<!-- classifier&#45;&gt;classifier_name -->
<g id="edge3" class="edge">
<title>classifier&#45;&gt;classifier_name</title>
<path fill="none" stroke="#dddddd" d="M110,-173.9735C110,-162.1918 110,-146.5607 110,-133.1581"/>
<polygon fill="#dddddd" stroke="#dddddd" points="113.5001,-133.0033 110,-123.0034 106.5001,-133.0034 113.5001,-133.0033"/>
<text text-anchor="middle" x="125.5" y="-144.8" font-family="Times,serif" font-size="14.00" fill="#dddddd">name</text>
</g>
<!-- classifier_classCount -->
<g id="node8" class="node">
<title>classifier_classCount</title>
<path fill="#ffffff" stroke="#dddddd" d="M42,-123C42,-123 12,-123 12,-123 6,-123 0,-117 0,-111 0,-111 0,-99 0,-99 0,-93 6,-87 12,-87 12,-87 42,-87 42,-87 48,-87 54,-93 54,-99 54,-99 54,-111 54,-111 54,-117 48,-123 42,-123"/>
<text text-anchor="middle" x="27" y="-101.3" font-family="Segoe UI,Roboto,Helvetica,Arial,sans-serif" font-size="14.00" fill="#dddddd">Int</text>
</g>
<!-- classifier&#45;&gt;classifier_classCount -->
<g id="edge4" class="edge">
<title>classifier&#45;&gt;classifier_classCount</title>
<path fill="none" stroke="#dddddd" d="M67.9168,-173.9547C59.8517,-169.0389 52.0486,-163.0726 46,-156 40.3243,-149.3634 36.2703,-140.8715 33.4068,-132.7289"/>
<polygon fill="#dddddd" stroke="#dddddd" points="36.7406,-131.6621 30.4754,-123.1182 30.0452,-133.7043 36.7406,-131.6621"/>
<text text-anchor="middle" x="76" y="-144.8" font-family="Times,serif" font-size="14.00" fill="#dddddd">classCount</text>
</g>
<!-- login -->
<g id="node3" class="node">
<title>login</title>
<polygon fill="#f5ffff" stroke="#dddddd" points="285.7952,-123 230.2048,-123 210.4068,-87 305.5932,-87 285.7952,-123"/>
<text text-anchor="middle" x="258" y="-101.3" font-family="Segoe UI,Roboto,Helvetica,Arial,sans-serif" font-size="14.00" fill="#dddddd">Login</text>
</g>
<!-- login_user -->
<g id="node6" class="node">
<title>login_user</title>
<path fill="#ffffff" stroke="#2980b9" d="M195,-36C195,-36 165,-36 165,-36 159,-36 153,-30 153,-24 153,-24 153,-12 153,-12 153,-6 159,0 165,0 165,0 195,0 195,0 201,0 207,-6 207,-12 207,-12 207,-24 207,-24 207,-30 201,-36 195,-36"/>
<text text-anchor="middle" x="180" y="-14.3" font-family="Segoe UI,Roboto,Helvetica,Arial,sans-serif" font-size="14.00" fill="#000000">String</text>
</g>
<!-- login&#45;&gt;login_user -->
<g id="edge6" class="edge">
<title>login&#45;&gt;login_user</title>
<path fill="none" stroke="#dddddd" d="M241.8383,-86.9735C230.6479,-74.4919 215.5841,-57.6899 203.126,-43.7944"/>
<polygon fill="#dddddd" stroke="#dddddd" points="205.4224,-41.1127 196.1409,-36.0034 200.2104,-45.7855 205.4224,-41.1127"/>
<text text-anchor="middle" x="235.5" y="-57.8" font-family="Times,serif" font-size="14.00" fill="#dddddd">user</text>
</g>
<!-- login_password -->
<g id="node9" class="node">
<title>login_password</title>
<path fill="#ffffff" stroke="#dddddd" d="M273,-36C273,-36 243,-36 243,-36 237,-36 231,-30 231,-24 231,-24 231,-12 231,-12 231,-6 237,0 243,0 243,0 273,0 273,0 279,0 285,-6 285,-12 285,-12 285,-24 285,-24 285,-30 279,-36 273,-36"/>
<text text-anchor="middle" x="258" y="-14.3" font-family="Segoe UI,Roboto,Helvetica,Arial,sans-serif" font-size="14.00" fill="#dddddd">String</text>
</g>
<!-- login&#45;&gt;login_password -->
<g id="edge7" class="edge">
<title>login&#45;&gt;login_password</title>
<path fill="none" stroke="#dddddd" d="M258,-86.9735C258,-75.1918 258,-59.5607 258,-46.1581"/>
<polygon fill="#dddddd" stroke="#dddddd" points="261.5001,-46.0033 258,-36.0034 254.5001,-46.0034 261.5001,-46.0033"/>
<text text-anchor="middle" x="284" y="-57.8" font-family="Times,serif" font-size="14.00" fill="#dddddd">password</text>
</g>
<!-- token -->
<g id="node4" class="node">
<title>token</title>
<polygon fill="#f5ffff" stroke="#dddddd" points="403.5555,-123 344.4445,-123 323.3926,-87 424.6074,-87 403.5555,-123"/>
<text text-anchor="middle" x="374" y="-101.3" font-family="Segoe UI,Roboto,Helvetica,Arial,sans-serif" font-size="14.00" fill="#dddddd">Token</text>
</g>
<!-- token_token -->
<g id="node10" class="node">
<title>token_token</title>
<path fill="#ffffff" stroke="#dddddd" d="M389,-36C389,-36 359,-36 359,-36 353,-36 347,-30 347,-24 347,-24 347,-12 347,-12 347,-6 353,0 359,0 359,0 389,0 389,0 395,0 401,-6 401,-12 401,-12 401,-24 401,-24 401,-30 395,-36 389,-36"/>
<text text-anchor="middle" x="374" y="-14.3" font-family="Segoe UI,Roboto,Helvetica,Arial,sans-serif" font-size="14.00" fill="#dddddd">String</text>
</g>
<!-- token&#45;&gt;token_token -->
<g id="edge5" class="edge">
<title>token&#45;&gt;token_token</title>
<path fill="none" stroke="#dddddd" d="M374,-86.9735C374,-75.1918 374,-59.5607 374,-46.1581"/>
<polygon fill="#dddddd" stroke="#dddddd" points="377.5001,-46.0033 374,-36.0034 370.5001,-46.0034 377.5001,-46.0033"/>
<text text-anchor="middle" x="389.5" y="-57.8" font-family="Times,serif" font-size="14.00" fill="#dddddd">token</text>
</g>
<!-- auth&#45;&gt;login -->
<g id="edge9" class="edge">
<title>auth&#45;&gt;login</title>
<path fill="none" stroke="#dddddd" stroke-dasharray="5,2" d="M250.072,-173.9735C251.4262,-162.1918 253.2229,-146.5607 254.7634,-133.1581"/>
<polygon fill="#dddddd" stroke="#dddddd" points="258.2658,-133.3376 255.9306,-123.0034 251.3115,-132.5383 258.2658,-133.3376"/>
</g>
<!-- auth&#45;&gt;token -->
<g id="edge8" class="edge">
<title>auth&#45;&gt;token</title>
<path fill="none" stroke="#dddddd" stroke-dasharray="5,2" d="M272.5932,-175.019C291.6027,-161.8934 318.1562,-143.5588 339.3229,-128.9437"/>
<polygon fill="#dddddd" stroke="#dddddd" points="341.491,-131.7 347.7313,-123.1379 337.5136,-125.9397 341.491,-131.7"/>
</g>
<!-- auth&#45;&gt;login_user -->
<g id="edge10" class="edge">
<title>auth&#45;&gt;login_user</title>
<path fill="none" stroke="#2980b9" d="M223.422,-174.1932C208.4187,-161.7458 190.5312,-143.6889 182,-123 171.9054,-98.5198 172.6209,-68.0212 175.1298,-46.212"/>
<polygon fill="#2980b9" stroke="#2980b9" points="178.603,-46.6453 176.4661,-36.2682 171.6654,-45.7129 178.603,-46.6453"/>
<text text-anchor="middle" x="191.5" y="-101.3" font-family="Times,serif" font-size="14.00" fill="#000000">???</text>
</g>
</g>
</svg>
