<?xml version="1.0" encoding="UTF-8" standalone="no"?>
<!DOCTYPE svg PUBLIC "-//W3C//DTD SVG 1.1//EN"
 "http://www.w3.org/Graphics/SVG/1.1/DTD/svg11.dtd">
<!-- Generated by graphviz version 2.40.1 (20161225.0304)
 -->
<!-- Title: %3 Pages: 1 -->
<svg width="158pt" height="131pt"
 viewBox="0.00 0.00 157.86 131.00" xmlns="http://www.w3.org/2000/svg" xmlns:xlink="http://www.w3.org/1999/xlink">
<g id="graph0" class="graph" transform="scale(1 1) rotate(0) translate(4 127)">
<title>%3</title>
<!-- classifier -->
<g id="node1" class="node">
<title>classifier</title>
<polygon fill="#e1f5fe" stroke="#2980b9" points="110.569,-123 29.1429,-123 .1438,-87 139.5682,-87 110.569,-123"/>
<text text-anchor="middle" x="69.856" y="-101.3" font-family="Segoe UI,Roboto,Helvetica,Arial,sans-serif" font-size="14.00" fill="#000000">Classifier</text>
</g>
<!-- classifier_name -->
<g id="node2" class="node">
<title>classifier_name</title>
<path fill="#ffffff" stroke="#2980b9" d="M48.856,-36C48.856,-36 18.856,-36 18.856,-36 12.856,-36 6.856,-30 6.856,-24 6.856,-24 6.856,-12 6.856,-12 6.856,-6 12.856,0 18.856,0 18.856,0 48.856,0 48.856,0 54.856,0 60.856,-6 60.856,-12 60.856,-12 60.856,-24 60.856,-24 60.856,-30 54.856,-36 48.856,-36"/>
<text text-anchor="middle" x="33.856" y="-14.3" font-family="Segoe UI,Roboto,Helvetica,Arial,sans-serif" font-size="14.00" fill="#000000">String</text>
</g>
<!-- classifier&#45;&gt;classifier_name -->
<g id="edge1" class="edge">
<title>classifier&#45;&gt;classifier_name</title>
<path fill="none" stroke="#2980b9" d="M60.9054,-86.8209C58.216,-81.1571 55.3258,-74.8596 52.856,-69 49.6918,-61.4931 46.5038,-53.2578 43.667,-45.6363"/>
<polygon fill="#2980b9" stroke="#2980b9" points="46.8947,-44.2719 40.1715,-36.0836 40.321,-46.6774 46.8947,-44.2719"/>
<text text-anchor="middle" x="68.356" y="-57.8" font-family="Times,serif" font-size="14.00" fill="#000000">name</text>
</g>
<!-- classifier_classCount -->
<g id="node3" class="node">
<title>classifier_classCount</title>
<path fill="#ffffff" stroke="#2980b9" d="M120.856,-36C120.856,-36 90.856,-36 90.856,-36 84.856,-36 78.856,-30 78.856,-24 78.856,-24 78.856,-12 78.856,-12 78.856,-6 84.856,0 90.856,0 90.856,0 120.856,0 120.856,0 126.856,0 132.856,-6 132.856,-12 132.856,-12 132.856,-24 132.856,-24 132.856,-30 126.856,-36 120.856,-36"/>
<text text-anchor="middle" x="105.856" y="-14.3" font-family="Segoe UI,Roboto,Helvetica,Arial,sans-serif" font-size="14.00" fill="#000000">Int</text>
</g>
<!-- classifier&#45;&gt;classifier_classCount -->
<g id="edge2" class="edge">
<title>classifier&#45;&gt;classifier_classCount</title>
<path fill="none" stroke="#2980b9" d="M77.3152,-86.9735C82.2869,-74.9585 88.9152,-58.9401 94.5327,-45.3646"/>
<polygon fill="#2980b9" stroke="#2980b9" points="97.8168,-46.5818 98.4063,-36.0034 91.3486,-43.9053 97.8168,-46.5818"/>
<text text-anchor="middle" x="119.856" y="-57.8" font-family="Times,serif" font-size="14.00" fill="#000000">classCount</text>
</g>
</g>
</svg>
