<?xml version="1.0" encoding="UTF-8" standalone="no"?>
<!DOCTYPE svg PUBLIC "-//W3C//DTD SVG 1.1//EN"
 "http://www.w3.org/Graphics/SVG/1.1/DTD/svg11.dtd">
<!-- Generated by graphviz version 2.40.1 (20161225.0304)
 -->
<!-- Title: %3 Pages: 1 -->
<svg width="385pt" height="305pt"
 viewBox="0.00 0.00 384.55 305.00" xmlns="http://www.w3.org/2000/svg" xmlns:xlink="http://www.w3.org/1999/xlink">
<g id="graph0" class="graph" transform="scale(1 1) rotate(0) translate(4 301)">
<title>%3</title>
<!-- mlService -->
<g id="node1" class="node">
<title>mlService</title>
<polygon fill="#f5ffff" stroke="#dddddd" points="200.4738,-297 115.5262,-297 85.273,-261 230.727,-261 200.4738,-297"/>
<text text-anchor="middle" x="158" y="-275.3" font-family="Segoe UI,Roboto,Helvetica,Arial,sans-serif" font-size="14.00" fill="#dddddd">MlService</text>
</g>
<!-- classifier -->
<g id="node2" class="node">
<title>classifier</title>
<polygon fill="#e1f5fe" stroke="#2980b9" points="134.7131,-210 53.2869,-210 24.2878,-174 163.7122,-174 134.7131,-210"/>
<text text-anchor="middle" x="94" y="-188.3" font-family="Segoe UI,Roboto,Helvetica,Arial,sans-serif" font-size="14.00" fill="#000000">Classifier</text>
</g>
<!-- mlService&#45;&gt;classifier -->
<g id="edge1" class="edge">
<title>mlService&#45;&gt;classifier</title>
<path fill="none" stroke="#dddddd" d="M144.7392,-260.9735C135.643,-248.6085 123.4279,-232.0036 113.2623,-218.1847"/>
<polygon fill="#dddddd" stroke="#dddddd" points="115.9889,-215.9846 107.2439,-210.0034 110.3502,-220.1326 115.9889,-215.9846"/>
<text text-anchor="middle" x="154.5" y="-231.8" font-family="Times,serif" font-size="14.00" fill="#dddddd">classifier</text>
</g>
<!-- auth -->
<g id="node5" class="node">
<title>auth</title>
<polygon fill="#f5ffff" stroke="#dddddd" points="198.9241,-174 247.0759,-174 264.2246,-210 181.7754,-210 198.9241,-174"/>
<text text-anchor="middle" x="223" y="-188.3" font-family="Segoe UI,Roboto,Helvetica,Arial,sans-serif" font-size="14.00" fill="#dddddd">Auth</text>
</g>
<!-- mlService&#45;&gt;auth -->
<g id="edge2" class="edge">
<title>mlService&#45;&gt;auth</title>
<path fill="none" stroke="#dddddd" d="M171.468,-260.9735C180.7063,-248.6085 193.1123,-232.0036 203.4367,-218.1847"/>
<polygon fill="#dddddd" stroke="#dddddd" points="206.3678,-220.1093 209.5492,-210.0034 200.76,-215.9196 206.3678,-220.1093"/>
<text text-anchor="middle" x="207" y="-231.8" font-family="Times,serif" font-size="14.00" fill="#dddddd">auth</text>
</g>
<!-- classifier_name -->
<g id="node6" class="node">
<title>classifier_name</title>
<path fill="#ffffff" stroke="#2980b9" d="M42,-123C42,-123 12,-123 12,-123 6,-123 0,-117 0,-111 0,-111 0,-99 0,-99 0,-93 6,-87 12,-87 12,-87 42,-87 42,-87 48,-87 54,-93 54,-99 54,-99 54,-111 54,-111 54,-117 48,-123 42,-123"/>
<text text-anchor="middle" x="27" y="-101.3" font-family="Segoe UI,Roboto,Helvetica,Arial,sans-serif" font-size="14.00" fill="#000000">String</text>
</g>
<!-- classifier&#45;&gt;classifier_name -->
<g id="edge3" class="edge">
<title>classifier&#45;&gt;classifier_name</title>
<path fill="none" stroke="#2980b9" d="M76.9352,-173.6959C71.9704,-168.1357 66.6383,-161.9267 62,-156 55.9732,-148.2991 49.8054,-139.6237 44.3595,-131.6415"/>
<polygon fill="#2980b9" stroke="#2980b9" points="47.2572,-129.6784 38.7743,-123.3309 41.4474,-133.583 47.2572,-129.6784"/>
<text text-anchor="middle" x="77.5" y="-144.8" font-family="Times,serif" font-size="14.00" fill="#000000">name</text>
</g>
<!-- classifier_classCount -->
<g id="node7" class="node">
<title>classifier_classCount</title>
<path fill="#ffffff" stroke="#dddddd" d="M114,-123C114,-123 84,-123 84,-123 78,-123 72,-117 72,-111 72,-111 72,-99 72,-99 72,-93 78,-87 84,-87 84,-87 114,-87 114,-87 120,-87 126,-93 126,-99 126,-99 126,-111 126,-111 126,-117 120,-123 114,-123"/>
<text text-anchor="middle" x="99" y="-101.3" font-family="Segoe UI,Roboto,Helvetica,Arial,sans-serif" font-size="14.00" fill="#dddddd">Int</text>
</g>
<!-- classifier&#45;&gt;classifier_classCount -->
<g id="edge4" class="edge">
<title>classifier&#45;&gt;classifier_classCount</title>
<path fill="none" stroke="#dddddd" d="M95.036,-173.9735C95.7131,-162.1918 96.6115,-146.5607 97.3817,-133.1581"/>
<polygon fill="#dddddd" stroke="#dddddd" points="100.8857,-133.1877 97.9653,-123.0034 93.8972,-132.786 100.8857,-133.1877"/>
<text text-anchor="middle" x="127" y="-144.8" font-family="Times,serif" font-size="14.00" fill="#dddddd">classCount</text>
</g>
<!-- login -->
<g id="node3" class="node">
<title>login</title>
<polygon fill="#f5ffff" stroke="#dddddd" points="237.7952,-123 182.2048,-123 162.4068,-87 257.5932,-87 237.7952,-123"/>
<text text-anchor="middle" x="210" y="-101.3" font-family="Segoe UI,Roboto,Helvetica,Arial,sans-serif" font-size="14.00" fill="#dddddd">Login</text>
</g>
<!-- login_user -->
<g id="node8" class="node">
<title>login_user</title>
<path fill="#ffffff" stroke="#dddddd" d="M174,-36C174,-36 144,-36 144,-36 138,-36 132,-30 132,-24 132,-24 132,-12 132,-12 132,-6 138,0 144,0 144,0 174,0 174,0 180,0 186,-6 186,-12 186,-12 186,-24 186,-24 186,-30 180,-36 174,-36"/>
<text text-anchor="middle" x="159" y="-14.3" font-family="Segoe UI,Roboto,Helvetica,Arial,sans-serif" font-size="14.00" fill="#dddddd">String</text>
</g>
<!-- login&#45;&gt;login_user -->
<g id="edge6" class="edge">
<title>login&#45;&gt;login_user</title>
<path fill="none" stroke="#dddddd" d="M199.4328,-86.9735C192.3211,-74.8418 182.8168,-58.6287 174.8099,-44.9698"/>
<polygon fill="#dddddd" stroke="#dddddd" points="177.6304,-42.8603 169.5537,-36.0034 171.5915,-46.4004 177.6304,-42.8603"/>
<text text-anchor="middle" x="199.5" y="-57.8" font-family="Times,serif" font-size="14.00" fill="#dddddd">user</text>
</g>
<!-- login_password -->
<g id="node9" class="node">
<title>login_password</title>
<path fill="#ffffff" stroke="#dddddd" d="M246,-36C246,-36 216,-36 216,-36 210,-36 204,-30 204,-24 204,-24 204,-12 204,-12 204,-6 210,0 216,0 216,0 246,0 246,0 252,0 258,-6 258,-12 258,-12 258,-24 258,-24 258,-30 252,-36 246,-36"/>
<text text-anchor="middle" x="231" y="-14.3" font-family="Segoe UI,Roboto,Helvetica,Arial,sans-serif" font-size="14.00" fill="#dddddd">String</text>
</g>
<!-- login&#45;&gt;login_password -->
<g id="edge7" class="edge">
<title>login&#45;&gt;login_password</title>
<path fill="none" stroke="#dddddd" d="M214.3512,-86.9735C217.2232,-75.0751 221.0429,-59.2508 224.2992,-45.7606"/>
<polygon fill="#dddddd" stroke="#dddddd" points="227.7102,-46.5455 226.6544,-36.0034 220.9056,-44.9029 227.7102,-46.5455"/>
<text text-anchor="middle" x="248" y="-57.8" font-family="Times,serif" font-size="14.00" fill="#dddddd">password</text>
</g>
<!-- token -->
<g id="node4" class="node">
<title>token</title>
<polygon fill="#f5ffff" stroke="#dddddd" points="355.5555,-123 296.4445,-123 275.3926,-87 376.6074,-87 355.5555,-123"/>
<text text-anchor="middle" x="326" y="-101.3" font-family="Segoe UI,Roboto,Helvetica,Arial,sans-serif" font-size="14.00" fill="#dddddd">Token</text>
</g>
<!-- token_token -->
<g id="node10" class="node">
<title>token_token</title>
<path fill="#ffffff" stroke="#dddddd" d="M341,-36C341,-36 311,-36 311,-36 305,-36 299,-30 299,-24 299,-24 299,-12 299,-12 299,-6 305,0 311,0 311,0 341,0 341,0 347,0 353,-6 353,-12 353,-12 353,-24 353,-24 353,-30 347,-36 341,-36"/>
<text text-anchor="middle" x="326" y="-14.3" font-family="Segoe UI,Roboto,Helvetica,Arial,sans-serif" font-size="14.00" fill="#dddddd">String</text>
</g>
<!-- token&#45;&gt;token_token -->
<g id="edge5" class="edge">
<title>token&#45;&gt;token_token</title>
<path fill="none" stroke="#dddddd" d="M326,-86.9735C326,-75.1918 326,-59.5607 326,-46.1581"/>
<polygon fill="#dddddd" stroke="#dddddd" points="329.5001,-46.0033 326,-36.0034 322.5001,-46.0034 329.5001,-46.0033"/>
<text text-anchor="middle" x="341.5" y="-57.8" font-family="Times,serif" font-size="14.00" fill="#dddddd">token</text>
</g>
<!-- auth&#45;&gt;login -->
<g id="edge9" class="edge">
<title>auth&#45;&gt;login</title>
<path fill="none" stroke="#dddddd" stroke-dasharray="5,2" d="M220.3064,-173.9735C218.5459,-162.1918 216.2102,-146.5607 214.2075,-133.1581"/>
<polygon fill="#dddddd" stroke="#dddddd" points="217.6297,-132.3763 212.6902,-123.0034 210.7065,-133.4108 217.6297,-132.3763"/>
</g>
<!-- auth&#45;&gt;token -->
<g id="edge8" class="edge">
<title>auth&#45;&gt;token</title>
<path fill="none" stroke="#dddddd" stroke-dasharray="5,2" d="M244.3417,-173.9735C259.5331,-161.1419 280.1303,-143.7443 296.8373,-129.6326"/>
<polygon fill="#dddddd" stroke="#dddddd" points="299.3046,-132.13 304.6857,-123.0034 294.7877,-126.7823 299.3046,-132.13"/>
</g>
</g>
</svg>
